<svg width="41" height="39" viewBox="0 0 41 39" fill="none" xmlns="http://www.w3.org/2000/svg">
<path d="M2.33887 10.9841C3.62818 8.48639 5.44984 6.37535 7.74564 4.62002C10.8566 2.2306 14.4251 0.792315 18.4261 0.351549C23.1258 -0.166545 27.5428 0.660858 31.627 2.93428C32.6418 3.49877 33.59 4.14059 34.4967 4.83654C34.7213 5.00666 34.6963 5.10718 34.505 5.2773C32.6501 6.99397 30.7951 8.71064 28.9568 10.4428C28.7406 10.6438 28.6241 10.6284 28.3912 10.466C23.0011 6.60733 15.1404 7.65125 11.1228 12.7549C10.4158 13.6519 9.84181 14.6184 9.44254 15.6701C9.40927 15.7629 9.34272 15.848 9.29281 15.9407C8.21978 15.1829 7.13842 14.4251 6.0737 13.6596C4.82598 12.7703 3.57827 11.8811 2.33887 10.9841Z" fill="#E94335"/>
<path d="M9.29235 23.1941C9.65002 23.9287 9.94948 24.6942 10.3987 25.3825C12.2869 28.259 14.9819 30.1072 18.5338 30.7644C21.7363 31.3599 24.814 30.9578 27.6837 29.4653C27.7835 29.4189 27.8833 29.3725 27.9748 29.3261C28.0248 29.3725 28.0663 29.4267 28.1163 29.4653C30.2623 31.0119 32.4167 32.5584 34.5628 34.105C33.5313 35.0561 32.3585 35.8216 31.1108 36.4867C27.4924 38.4044 23.5746 39.1777 19.4488 38.8838C14.3082 38.5126 9.87461 36.6258 6.21464 33.2234C4.60924 31.731 3.28666 30.0453 2.33008 28.1198C3.22012 27.4858 4.11016 26.8594 5.0002 26.2253C6.43091 25.2123 7.86163 24.2071 9.29235 23.1941Z" fill="#34A853"/>
<path d="M34.5723 34.1049C32.4262 32.5583 30.2718 31.0118 28.1257 29.4653C28.0758 29.4266 28.0259 29.3725 27.9843 29.3261C28.7246 28.7925 29.4816 28.2744 30.0888 27.5939C31.1036 26.465 31.7774 25.1891 32.1267 23.7585C32.1683 23.5807 32.135 23.5188 31.9437 23.5265C31.8439 23.5343 31.7524 23.5265 31.6526 23.5265C28.2588 23.5265 24.8567 23.5188 21.4629 23.5343C21.0886 23.5343 21.0054 23.4415 21.0137 23.109C21.0304 20.8665 21.0304 18.624 21.0137 16.3815C21.0137 16.0954 21.0969 16.0181 21.4047 16.0181C27.6266 16.0258 33.8486 16.0258 40.0788 16.0181C40.345 16.0181 40.4532 16.0799 40.5197 16.3428C41.0271 18.4693 40.9938 20.6036 40.6861 22.7533C40.4365 24.4699 39.9873 26.1325 39.2969 27.7409C38.2738 30.1148 36.7682 32.1872 34.7885 33.9657C34.7137 34.0198 34.6388 34.0585 34.5723 34.1049Z" fill="#4285F3"/>
<path d="M9.29233 23.1942C7.86162 24.2072 6.4309 25.2124 5.00019 26.2254C4.11016 26.8518 3.22012 27.4859 2.33008 28.1199C1.63968 26.9291 1.1905 25.6687 0.824507 24.3696C0.125787 21.8564 0.0176519 19.3046 0.400284 16.7451C0.699736 14.7346 1.32359 12.8014 2.33008 10.9919C3.5778 11.8812 4.81719 12.7782 6.06491 13.6675C7.13794 14.433 8.21098 15.1908 9.28401 15.9486C9.10101 16.776 8.84315 17.588 8.75997 18.4386C8.61024 19.9851 8.76829 21.493 9.24242 22.9777C9.27569 23.0395 9.28401 23.1169 9.29233 23.1942Z" fill="#FABB06"/>
</svg>
