<svg width="104" height="104" viewBox="0 0 104 104" fill="none" xmlns="http://www.w3.org/2000/svg">
<path d="M103.142 52.1589C103.142 24.0373 80.2637 1.15894 52.1421 1.15894C24.0205 1.15894 1.14209 24.0373 1.14209 52.1589C1.14209 66.2197 6.8606 78.9697 16.0949 88.2018C16.1404 88.2452 16.1795 88.2908 16.2294 88.3299C25.4506 97.4903 38.1464 103.159 52.1421 103.159C65.9273 103.159 78.4407 97.6531 87.6294 88.7357C87.6793 88.688 87.7357 88.6445 87.7813 88.5925C97.25 79.33 103.142 66.4216 103.142 52.1589ZM52.1421 5.49936C77.87 5.49936 98.8017 26.4311 98.8017 52.1589C98.8017 63.5786 94.6652 74.039 87.8269 82.1578C85.3312 64.1472 75.0335 59.0298 65.1308 57.617C71.776 53.3308 76.1946 45.8827 76.1946 37.4058C76.1946 24.1437 65.4043 13.3534 52.1421 13.3534C38.8799 13.3534 28.0896 24.1437 28.0896 37.4058C28.0896 45.8697 32.493 53.3113 39.1208 57.5975C27.8878 58.9322 22.714 63.9432 16.6504 82.3705C9.70358 74.2235 5.48252 63.6828 5.48252 52.1589C5.48252 26.4311 26.4142 5.49936 52.1421 5.49936ZM52.0922 57.1157C41.2455 57.0875 32.43 48.2591 32.43 37.4058C32.43 26.5374 41.2715 17.6938 52.1421 17.6938C63.0127 17.6938 71.8541 26.5374 71.8541 37.4058C71.8541 48.2547 63.0452 57.0788 52.205 57.1135L52.0922 57.1157ZM20.0598 85.9513C27.7554 61.4778 32.5537 61.4583 51.656 61.4583L52.0943 61.4561C52.1117 61.4561 52.1269 61.4583 52.1421 61.4583C52.1638 61.4583 52.1833 61.4561 52.2029 61.4561L53.8783 61.4474C66.4546 61.3454 82.104 61.2217 83.8836 86.2595C75.55 94.0245 64.4081 98.8185 52.1421 98.8185C39.7111 98.8185 28.4303 93.903 20.0598 85.9513Z" fill="#A790C6" stroke="white"/>
</svg>
