<svg width="62" height="63" viewBox="0 0 62 63" fill="none" xmlns="http://www.w3.org/2000/svg">
<rect width="62" height="63" rx="10" fill="#4D70B5"/>
<path d="M41.6 38.52C41.6 40.7067 40.88 42.5067 39.44 43.92C38 45.3333 36.1333 46.1733 33.84 46.44V50H31.32V46.48C29.1333 46.32 27.2667 45.72 25.72 44.68C24.2 43.64 23.0933 42.24 22.4 40.48L25.6 38.64C26.5067 41.12 28.4133 42.52 31.32 42.84V33.16C30.12 32.7333 29.1467 32.3467 28.4 32C27.68 31.6267 26.92 31.1333 26.12 30.52C25.32 29.9067 24.72 29.16 24.32 28.28C23.9467 27.3733 23.76 26.3333 23.76 25.16C23.76 23 24.48 21.24 25.92 19.88C27.36 18.52 29.16 17.7333 31.32 17.52V14H33.84V17.56C35.44 17.7733 36.8667 18.3333 38.12 19.24C39.3733 20.1467 40.3467 21.3733 41.04 22.92L37.92 24.68C37.1467 22.7333 35.7867 21.5733 33.84 21.2V30.4C35.0667 30.8533 36.04 31.2533 36.76 31.6C37.48 31.9467 38.2667 32.44 39.12 33.08C39.9733 33.6933 40.6 34.4533 41 35.36C41.4 36.2667 41.6 37.32 41.6 38.52ZM27.44 25.16C27.44 26.1733 27.7467 27 28.36 27.64C28.9733 28.28 29.96 28.88 31.32 29.44V21.16C30.1467 21.32 29.2 21.76 28.48 22.48C27.7867 23.1733 27.44 24.0667 27.44 25.16ZM33.84 42.76C35.12 42.5733 36.1067 42.1067 36.8 41.36C37.52 40.5867 37.88 39.6533 37.88 38.56C37.88 37.4667 37.5467 36.6 36.88 35.96C36.24 35.2933 35.2267 34.6667 33.84 34.08V42.76Z" fill="white"/>
</svg>
