<svg width="40" height="42" viewBox="0 0 40 42" fill="none" xmlns="http://www.w3.org/2000/svg">
<g clip-path="url(#clip0_617_2280)">
<path d="M39.6254 0.818848H0.0130768C0.0066637 0.818848 0.00146484 0.82416 0.00146484 0.830712V41.3042C0.00146484 41.3107 0.0066637 41.316 0.0130768 41.316H39.6254C39.6318 41.316 39.637 41.3107 39.637 41.3042V0.830712C39.637 0.82416 39.6318 0.818848 39.6254 0.818848Z" fill="#7289DA"/>
<path d="M26.7862 31.8245L25.1605 29.8471C28.3345 28.977 29.5731 26.7623 29.5731 26.7623C25.5476 30.638 14.5549 30.7962 10.2972 26.7623C10.2972 26.7623 11.381 28.8188 14.6324 29.8471L12.8519 31.8245C7.43293 31.7454 5.34277 28.0278 5.34277 28.0278C5.34277 19.8019 8.90378 13.2369 8.90378 13.2369C12.5422 10.6267 15.871 10.6267 15.871 10.6267L16.1032 10.9431C11.6132 12.2086 9.67791 14.2651 9.67791 14.2651C14.942 10.6267 25.7799 10.9431 30.0376 14.2651C30.115 14.186 27.4829 12.0504 23.38 10.9431L23.7671 10.6267C23.7671 10.6267 27.0959 10.6267 30.7343 13.2369C30.7343 13.2369 34.2953 19.8019 34.2953 28.0278C34.2953 28.0278 32.2051 31.7454 26.7862 31.8245Z" fill="white"/>
<path d="M15.1743 25.6551C16.5852 25.6551 17.7289 24.4157 17.7289 22.8868C17.7289 21.3578 16.5852 20.1184 15.1743 20.1184C13.7634 20.1184 12.6196 21.3578 12.6196 22.8868C12.6196 24.4157 13.7634 25.6551 15.1743 25.6551Z" fill="#7289DA"/>
<path d="M24.1542 25.6551C25.5651 25.6551 26.7089 24.4157 26.7089 22.8868C26.7089 21.3578 25.5651 20.1184 24.1542 20.1184C22.7434 20.1184 21.5996 21.3578 21.5996 22.8868C21.5996 24.4157 22.7434 25.6551 24.1542 25.6551Z" fill="#7289DA"/>
</g>
<defs>
<clipPath id="clip0_617_2280">
<path d="M0.00146484 4.81885C0.00146484 2.60971 1.79233 0.818848 4.00146 0.818848H35.637C37.8461 0.818848 39.637 2.60971 39.637 4.81885V37.316C39.637 39.5252 37.8462 41.316 35.637 41.316H4.00147C1.79233 41.316 0.00146484 39.5252 0.00146484 37.316V4.81885Z" fill="white"/>
</clipPath>
</defs>
</svg>
