<svg width="41" height="42" viewBox="0 0 41 42" fill="none" xmlns="http://www.w3.org/2000/svg">
<g clip-path="url(#clip0_617_2277)">
<path d="M40.9735 0.80127H0.753489C0.746978 0.80127 0.741699 0.806621 0.741699 0.813223V41.5918C0.741699 41.5984 0.746978 41.6038 0.753489 41.6038H40.9735C40.98 41.6038 40.9852 41.5984 40.9852 41.5918V0.813223C40.9852 0.806621 40.98 0.80127 40.9735 0.80127Z" fill="#1877F2"/>
<path d="M28.6921 27.0998L29.5881 21.2025H24.0075V17.3773C24.0075 15.7675 24.7856 14.1896 27.2851 14.1896H29.8239V9.16897C29.8239 9.16897 27.5209 8.77051 25.3201 8.77051C20.7219 8.77051 17.7194 11.5916 17.7194 16.7079V21.2025H12.6104V27.0998H17.7194V41.6038H24.0075V27.0998H28.6921Z" fill="white"/>
</g>
<defs>
<clipPath id="clip0_617_2277">
<rect x="0.741699" y="0.80127" width="40.2435" height="40.8025" rx="6" fill="white"/>
</clipPath>
</defs>
</svg>
