<svg width="40" height="40" viewBox="0 0 40 40" fill="none" xmlns="http://www.w3.org/2000/svg">
<rect x="0.146973" y="0.252441" width="39.6355" height="39.6355" rx="3" fill="#37AEE2"/>
<path d="M14.8299 31.2716C13.9788 31.2716 14.0562 30.9702 13.824 30.2167L11.3481 22.3047L30.3043 11.4539" fill="#C8DAEA"/>
<path d="M14.7949 31.2715C15.2893 31.2715 15.5718 30.9877 15.9249 30.7038L19.1031 27.6526L15.1481 25.24" fill="#A9C9DD"/>
<path d="M15.2072 25.073L25.4806 32.6597C26.546 33.3494 27.4592 32.9662 27.7636 31.5868L31.9491 11.8155C32.3296 10.1295 31.2642 9.36321 30.1227 9.89964L5.69471 19.4021C4.09661 20.0152 4.09661 21.0114 5.39031 21.3946L11.7066 23.3871L26.1655 14.1145C26.8504 13.7313 27.4592 13.8846 27.0026 14.421" fill="#F6FBFE"/>
</svg>
